# xmcd CD database file
#
# Track frame offsets:
#	150
#	18519
#	34932
#	49714
#	59493
#	84790
#	95764
#	113227
#	127216
#	142566
#	157299
#
# Disc length: 2322 seconds
#
# Revision: 2
# Processed by: cddbd v1.5PL3 Copyright (c) Steve Scherf et al.
# Submitted via: CDex 1.51
#
DISCID=9409100b
DTITLE=Kinky Friedman - Sold American
DYEAR=1973
DGENRE=Country
TTITLE0=We Reserve the Right to Refuse Service to You
TTITLE1=Highway Cafe
TTITLE2=Sold American
TTITLE3=Flyin' Down the Freeway
TTITLE4=Ride 'Em Jewboy
TTITLE5=Get Your Biscuits in the Oven and Your Buns in the Bed
TTITLE6=High on Jesus
TTITLE7=The Ballad of Charles Whitman
TTITLE8=Top Ten Commandments
TTITLE9=Western Union Wire
TTITLE10=Silver Eagle Express
EXTD=YEAR: 1973
EXTT0=
EXTT1=
EXTT2=
EXTT3=
EXTT4=
EXTT5=
EXTT6=
EXTT7=
EXTT8=
EXTT9=
EXTT10=
PLAYORDER=
